<svg xmlns="http://www.w3.org/2000/svg" xmlns:xlink="http://www.w3.org/1999/xlink" viewBox="0 0 2375.3977 2062.09302"><defs><style>.a{fill:url(#a);}</style><linearGradient id="a" x1="1187.69885" x2="1187.69885" y2="2062.09302" gradientTransform="matrix(1, 0, 0, -1, 0, 2062.09302)" gradientUnits="userSpaceOnUse"><stop offset="0.2202" stop-color="#638dd4" stop-opacity="0.2"/><stop offset="0.8312" stop-color="#638dd4"/></linearGradient></defs><title>Asset 40</title><path class="a" d="M1309.6,1218.1c107.7-15.5,182.49994-115.4,166.99994-223.1a196.83835,196.83835,0,0,0-122.8-155.3l-52.7,131.8H780.7v104.1h478.8l-52,130.1A194.79062,194.79062,0,0,0,1309.6,1218.1ZM260.3,1335.9h895.2l41.6-104.1H260.3v104.1ZM1509.4,451.1H0v104.1H1467.7Zm-104.1,260.2h-1145V815.4H1363.7ZM2373.6,866.1c-19-131.5-189.7-236.8-437.2-284.1q-36.6-6.9-73.5-12c1.6-16.5,3-33,4-49.5,16.1-266-48.6-469.1-177.3-520.5l-35,87.5c79.19995,31.7,132.1,197.7,118.19995,427.3-.9,15-2.1,29.9-3.6,44.8-93.6-7.9-301.7-4.2-301.7-4.2l-37.8,94.5s89.9,102.6,131.30005,155.1q62.25,78.9,119.30005,161.69995-30.75,96.29993-68.4,190.3h0q-37.20006,93.29993-80.5,184.1c-64.1,13.9-130.8,26-199,35.80005C1264.4,1386.7,1130.2,1399.2,1130.2,1399.2l-37.1,92.80005s149.7,149.69995,223.3,209q-17.55,22.5-36.1,44.3c-74.1,86.30005-151.4,151-222.5,188.2h0c-63.8,33.4-117.3,41.79993-152.3,27.79993l-35,87.5c127,50.8,313.8-47,481.3-242.1,13.2-15.4,26.4-31.69995,39.5-48.5,21.8,15.69995,44.1,30.9,66.8,45.4,208.6,133,401.2,171.19995,505.2,89.19995,107.4-84.69995,116-295.30005,30.6-537.9-6.5-18.5-13.69995-37.4-21.5-56.5,13.2-6.1,26.2-12.19995,38.80005-18.5C2249.70007,1160.8,2393.30005,1003.3,2373.6,866.1ZM1635,746.7q-40.04992-50.7-82.1-99.7c71-1.2,139.4.9,204.2,6.2-10.1,63-24.5,129.5-42.9,198.1Q1675.65,798.19995,1635,746.7Zm64.4,445.29993q24.75-61.95007,46.7-124.8c38.8,62.3,72.6,123.19995,101,181.6-61.30005,23.6-127.9,45-198.7,64Q1675.1001,1252.95,1699.4,1191.99994Zm-327.7,432.5c-51.1-41.4-102.8-87.8-154-138.4,42-4.4,84.8-9.69995,128.1-15.9,44.5-6.4,88.4-13.7,131.4-21.9C1443,1512.2,1407.7,1571.2,1371.7,1624.49994ZM1956.9,1672.8c-2.9,72-22.4,122.5-52,145.9-63.1,49.69995-217.8,19.1-396.1-94.69995q-30.75-19.5-62.1-42.2c51.9-76.19995,102.1-163.3,149.6-258.79993,104.19995-24.6,201.80005-54.19995,289.20007-88.1,7,17.30005,13.5,34.4,19.4,51.1C1942.70007,1493.3,1960.20007,1592.7,1956.9,1672.8Zm12.2-477.4h0c-11.4,5.69995-23.1,11.30005-35,16.80005-40.2-83.5-90.9-171.19995-150.4-260.79992,30.1-100.1,52.69995-197.1,67.1-287.9q34.95007,4.95,67.9,11.2c212.1,40.5,350.20007,125.7,361.6,204.9C2292.4,963.99994,2175,1092.7,1969.1,1195.4Zm-876.1,296.6H0v104.1H1051.4Z"/></svg>