<?xml version="1.0" encoding="utf-8"?>
<!-- Generator: Adobe Illustrator 22.0.0, SVG Export Plug-In . SVG Version: 6.00 Build 0)  -->
<svg version="1.1" id="Layer_1" xmlns="http://www.w3.org/2000/svg" xmlns:xlink="http://www.w3.org/1999/xlink" x="0px" y="0px"
	 viewBox="0 0 2375.4 2062.1" style="enable-background:new 0 0 2375.4 2062.1;" xml:space="preserve">
<style type="text/css">
	.st0{fill:url(#SVGID_1_);}
</style>
<title>Asset 40</title>
<linearGradient id="SVGID_1_" gradientUnits="userSpaceOnUse" x1="1187.6989" y1="999.9998" x2="1187.6989" y2="-1062.093" gradientTransform="matrix(1 0 0 1 0 1062.093)">
	<stop  offset="0.2202" style="stop-color:#FFFFFF;stop-opacity:0.2"/>
	<stop  offset="0.8312" style="stop-color:#FFFFFF"/>
</linearGradient>
<path class="st0" d="M1309.6,1218.1c107.7-15.5,182.5-115.4,167-223.1c-10-70.1-56.9-129.4-122.8-155.3l-52.7,131.8H780.7v104.1
	h478.8l-52,130.1C1239.8,1218.9,1275.1,1223.2,1309.6,1218.1z M260.3,1335.9h895.2l41.6-104.1H260.3V1335.9z M1509.4,451.1H0v104.1
	h1467.7L1509.4,451.1z M1405.3,711.3h-1145v104.1h1103.4L1405.3,711.3z M2373.6,866.1c-19-131.5-189.7-236.8-437.2-284.1
	c-24.4-4.6-48.9-8.6-73.5-12c1.6-16.5,3-33,4-49.5c16.1-266-48.6-469.1-177.3-520.5l-35,87.5c79.2,31.7,132.1,197.7,118.2,427.3
	c-0.9,15-2.1,29.9-3.6,44.8c-93.6-7.9-301.7-4.2-301.7-4.2l-37.8,94.5c0,0,89.9,102.6,131.3,155.1c41.5,52.6,81.3,106.5,119.3,161.7
	c-20.5,64.2-43.3,127.6-68.4,190.3l0,0c-24.8,62.2-51.6,123.6-80.5,184.1c-64.1,13.9-130.8,26-199,35.8
	c-68,9.8-202.2,22.3-202.2,22.3l-37.1,92.8c0,0,149.7,149.7,223.3,209c-11.7,15-23.7,29.8-36.1,44.3
	c-74.1,86.3-151.4,151-222.5,188.2l0,0c-63.8,33.4-117.3,41.8-152.3,27.8l-35,87.5c127,50.8,313.8-47,481.3-242.1
	c13.2-15.4,26.4-31.7,39.5-48.5c21.8,15.7,44.1,30.9,66.8,45.4c208.6,133,401.2,171.2,505.2,89.2c107.4-84.7,116-295.3,30.6-537.9
	c-6.5-18.5-13.7-37.4-21.5-56.5c13.2-6.1,26.2-12.2,38.8-18.5C2249.7,1160.8,2393.3,1003.3,2373.6,866.1z M1635,746.7
	c-26.7-33.8-54.1-67-82.1-99.7c71-1.2,139.4,0.9,204.2,6.2c-10.1,63-24.5,129.5-42.9,198.1C1688.5,815.9,1662.1,781,1635,746.7z
	 M1699.4,1192c16.5-41.3,32.1-82.9,46.7-124.8c38.8,62.3,72.6,123.2,101,181.6c-61.3,23.6-127.9,45-198.7,64
	C1666.2,1272.9,1683.2,1232.6,1699.4,1192z M1371.7,1624.5c-51.1-41.4-102.8-87.8-154-138.4c42-4.4,84.8-9.7,128.1-15.9
	c44.5-6.4,88.4-13.7,131.4-21.9C1443,1512.2,1407.7,1571.2,1371.7,1624.5z M1956.9,1672.8c-2.9,72-22.4,122.5-52,145.9
	c-63.1,49.7-217.8,19.1-396.1-94.7c-20.5-13-41.2-27.1-62.1-42.2c51.9-76.2,102.1-163.3,149.6-258.8
	c104.2-24.6,201.8-54.2,289.2-88.1c7,17.3,13.5,34.4,19.4,51.1C1942.7,1493.3,1960.2,1592.7,1956.9,1672.8z M1969.1,1195.4
	L1969.1,1195.4c-11.4,5.7-23.1,11.3-35,16.8c-40.2-83.5-90.9-171.2-150.4-260.8c30.1-100.1,52.7-197.1,67.1-287.9
	c23.3,3.3,45.9,7,67.9,11.2c212.1,40.5,350.2,125.7,361.6,204.9C2292.4,964,2175,1092.7,1969.1,1195.4z M1093,1492H0v104.1h1051.4
	L1093,1492z"/>
</svg>
